<?xml version="1.0" ?>
<svg height="160" id="svg8" version="1.1" viewBox="0 0 42.333332 42.333335" width="160" xmlns="http://www.w3.org/2000/svg" xmlns:cc="http://creativecommons.org/ns#" xmlns:dc="http://purl.org/dc/elements/1.1/" xmlns:inkscape="http://www.inkscape.org/namespaces/inkscape" xmlns:rdf="http://www.w3.org/1999/02/22-rdf-syntax-ns#" xmlns:sodipodi="http://sodipodi.sourceforge.net/DTD/sodipodi-0.dtd" xmlns:svg="http://www.w3.org/2000/svg" xmlns:xlink="http://www.w3.org/1999/xlink">
    <defs id="defs2">
        <linearGradient id="linearGradient925">
            <stop id="stop921" offset="0" style="stop-color:#0075cf;stop-opacity:1"/>
            <stop id="stop923" offset="1" style="stop-color:#33adff;stop-opacity:1"/>
        </linearGradient>
        <linearGradient gradientTransform="matrix(3.7795275,0,0,3.7795275,4.9133851e-6,-962.51955)" gradientUnits="userSpaceOnUse" id="linearGradient927" x1="29.434896" x2="12.964585" xlink:href="#linearGradient925" y1="285.02762" y2="267.10211"/></defs><g id="layer1" transform="translate(0,-254.66666)"><g id="g1489" style="fill:none;fill-rule:evenodd;stroke:none;stroke-width:1" transform="matrix(0.75231906,0,0,0.75231906,-503.97895,-267.83312)"/>
        <path d="M 53.496094 40 C 46.000867 40 40 46.340048 40 53.888672 L 40 106.10156 C 40 113.65026 46.000882 120 53.496094 120 L 106.50977 120 C 114.00498 120 120 113.65026 120 106.10156 L 120 53.888672 C 120 46.340048 114.005 40 106.50977 40 L 53.496094 40 z M 53.496094 47.708984 L 106.50977 47.708984 C 109.69406 47.708984 112.29102 50.312936 112.29102 53.888672 L 112.29102 106.10156 C 112.29102 109.67737 109.69409 112.2832 106.50977 112.2832 L 53.496094 112.2832 C 50.311781 112.2832 47.716797 109.67737 47.716797 106.10156 L 47.716797 53.888672 C 47.716797 50.312936 50.3118 47.708984 53.496094 47.708984 z M 64.480469 58.097656 C 61.75484 58.097656 59.566406 60.303788 59.566406 63.013672 C 59.566406 65.723555 61.75484 67.927734 64.480469 67.927734 C 67.190341 67.927734 69.396484 65.723555 69.396484 63.013672 C 69.396484 60.303788 67.190341 58.097656 64.480469 58.097656 z M 90.271484 70.984375 C 86.143651 70.984375 83.388271 73.23817 82.253906 75.380859 L 82.142578 75.380859 L 82.142578 71.646484 L 74.029297 71.646484 L 74.044922 98.902344 L 82.505859 98.902344 L 82.505859 85.416016 C 82.505859 81.871121 83.166702 78.421875 87.578125 78.421875 C 91.926509 78.421875 91.974609 82.485591 91.974609 85.652344 L 91.974609 98.902344 L 100.43359 98.902344 L 100.43359 83.966797 C 100.43359 76.624913 98.842247 70.984375 90.271484 70.984375 z M 60.226562 71.646484 L 60.226562 98.902344 L 68.703125 98.902344 L 68.703125 71.646484 L 60.226562 71.646484 z " id="path872" style="color:#000000;font-style:normal;font-variant:normal;font-weight:normal;font-stretch:normal;font-size:medium;line-height:normal;font-family:sans-serif;font-variant-ligatures:normal;font-variant-position:normal;font-variant-caps:normal;font-variant-numeric:normal;font-variant-alternates:normal;font-feature-settings:normal;text-indent:0;text-align:start;text-decoration:none;text-decoration-line:none;text-decoration-style:solid;text-decoration-color:#000000;letter-spacing:normal;word-spacing:normal;text-transform:none;writing-mode:lr-tb;direction:ltr;text-orientation:mixed;dominant-baseline:auto;baseline-shift:baseline;text-anchor:start;white-space:normal;shape-padding:0;clip-rule:nonzero;display:inline;overflow:visible;visibility:visible;opacity:1;isolation:auto;mix-blend-mode:normal;color-interpolation:sRGB;color-interpolation-filters:linearRGB;solid-color:#000000;solid-opacity:1;vector-effect:none;fill:url(#linearGradient927);fill-opacity:1;fill-rule:nonzero;stroke:none;stroke-width:2.89156818;stroke-linecap:square;stroke-linejoin:miter;stroke-miterlimit:4;stroke-dasharray:none;stroke-dashoffset:0;stroke-opacity:1;paint-order:stroke fill markers;color-rendering:auto;image-rendering:auto;shape-rendering:auto;text-rendering:auto;enable-background:accumulate" transform="matrix(0.26458333,0,0,0.26458333,0,254.66666)"/>
        </g>
</svg>