<?xml version="1.0" ?><svg id="Icons" viewBox="0 0 64 64" xmlns="http://www.w3.org/2000/svg" fill="darkorange"><path d="M42,48H22a6,6,0,0,1-6-6V22a6,6,0,0,1,6-6H42a6,6,0,0,1,6,6V42A6,6,0,0,1,42,48ZM22,20a2,2,0,0,0-2,2V42a2,2,0,0,0,2,2H42a2,2,0,0,0,2-2V22a2,2,0,0,0-2-2Z"/><path d="M27.18,26.39a2.12,2.12,0,0,1-2.27,2,2.12,2.12,0,0,1-2.28-2,2.14,2.14,0,0,1,2.28-2.08A2.15,2.15,0,0,1,27.18,26.39ZM23,37.53V31.1a2,2,0,0,1,4,0v6.43a2,2,0,0,1-4,0Z"/><path d="M41,33v4.54a2,2,0,0,1-2.24,2A2.11,2.11,0,0,1,37,37.44V33.26s-.24-1.34-1.36-1.34a5.06,5.06,0,0,0-1.64.37v5.13a2.13,2.13,0,0,1-1.74,2.08,2,2,0,0,1-2.26-2V31a1.8,1.8,0,0,1,1.81-1.83,1.82,1.82,0,0,1,1.78,1.32,5.69,5.69,0,0,1,3.82-1.38C39.79,29.13,41,30.44,41,33Z"/></svg>